<?xml version="1.0" encoding="utf-8"?>
<!-- Generator: Adobe Illustrator 16.0.0, SVG Export Plug-In . SVG Version: 6.00 Build 0)  -->
<!DOCTYPE svg PUBLIC "-//W3C//DTD SVG 1.0//EN" "http://www.w3.org/TR/2001/REC-SVG-20010904/DTD/svg10.dtd">
<svg version="1.0" id="Layer_1" xmlns="http://www.w3.org/2000/svg" xmlns:xlink="http://www.w3.org/1999/xlink" x="0px" y="0px"
	 width="1920px" height="1080px" viewBox="0 0 1920 1080" enable-background="new 0 0 1920 1080" xml:space="preserve">
<g>
	<g>
		<defs>
			<rect id="SVGID_1_" x="989" y="259" width="1286" height="1286"/>
		</defs>
		<clipPath id="SVGID_2_">
			<use xlink:href="#SVGID_1_"  overflow="visible"/>
		</clipPath>
		<polygon clip-path="url(#SVGID_2_)" fill="#CDBE7B" points="1417.876,455.542 1474.39,672.806 1474.201,508.788 		"/>
		<polygon clip-path="url(#SVGID_2_)" fill="#CDBE7B" points="1188.311,603.387 1319.05,636.456 1333.283,687.251 		"/>
		<g clip-path="url(#SVGID_2_)">
			<defs>
				<rect id="SVGID_3_" x="989" y="259" width="1286" height="1286"/>
			</defs>
			<clipPath id="SVGID_4_">
				<use xlink:href="#SVGID_3_"  overflow="visible"/>
			</clipPath>
			<path clip-path="url(#SVGID_4_)" fill="#ABD5FF" d="M2275.628,902c0,355.119-287.881,643-643,643s-643-287.881-643-643
				s287.881-643,643-643S2275.628,546.881,2275.628,902"/>
			<path clip-path="url(#SVGID_4_)" fill="#FFEB97" d="M2229.161,902c0,329.456-267.077,596.533-596.533,596.533
				S1036.095,1231.456,1036.095,902s267.077-596.533,596.533-596.533S2229.161,572.544,2229.161,902"/>

				<circle clip-path="url(#SVGID_4_)" fill="none" stroke="#D48AFF" stroke-width="30" stroke-miterlimit="10" cx="1632.628" cy="902" r="596.533"/>
		</g>
		<g clip-path="url(#SVGID_2_)">
			<defs>
				<rect id="SVGID_5_" x="989" y="259" width="1286" height="1286"/>
			</defs>
			<clipPath id="SVGID_6_">
				<use xlink:href="#SVGID_5_"  overflow="visible"/>
			</clipPath>
		</g>
		<g clip-path="url(#SVGID_2_)">
			<defs>
				<polygon id="SVGID_7_" points="989,707.22 1012.412,1236.933 2275,509.572 2275,316.047 989,304.809 				"/>
			</defs>
			<clipPath id="SVGID_8_">
				<use xlink:href="#SVGID_7_"  overflow="visible"/>
			</clipPath>
		</g>
		<g clip-path="url(#SVGID_2_)">
			<defs>
				<rect id="SVGID_9_" x="989" y="259" width="1286" height="1286"/>
			</defs>
			<clipPath id="SVGID_10_">
				<use xlink:href="#SVGID_9_"  overflow="visible"/>
			</clipPath>
		</g>
		<polyline clip-path="url(#SVGID_2_)" fill="#5094BC" points="1537.257,629.33 1745.064,629.354 1809.076,760.716
			1645.814,866.208 		"/>
		<polyline clip-path="url(#SVGID_2_)" fill="#CDBE7B" points="2138.457,796.57 2002.83,730.641 1967.668,750.511 		"/>
		<polyline clip-path="url(#SVGID_2_)" fill="#CDBE7B" points="2078.545,603.293 1944.437,646.816 1932.703,687.51 		"/>
		<polyline clip-path="url(#SVGID_2_)" fill="#CDBE7B" points="1186.841,1200.596 1321.175,1159.451 1332.554,1116.474 		"/>
		<polyline clip-path="url(#SVGID_2_)" fill="#CDBE7B" points="1467.505,1398.761 1596.836,1305.131 1596.93,1269.572 		"/>
		<polyline clip-path="url(#SVGID_2_)" fill="#CDBE7B" points="2077.393,1200.843 1941.611,1153.528 1932.256,1117.015 		"/>
		<polyline clip-path="url(#SVGID_2_)" fill="#CDBE7B" points="1598.778,362.38 1564.871,480.111 1597.787,478.103 		"/>
		<g clip-path="url(#SVGID_2_)">
			<defs>
				<rect id="SVGID_11_" x="989" y="259" width="1286" height="1286"/>
			</defs>
			<clipPath id="SVGID_12_">
				<use xlink:href="#SVGID_11_"  overflow="visible"/>
			</clipPath>
			<path clip-path="url(#SVGID_12_)" fill="#FFFFFF" d="M1597.87,365.331c0.482-14.713,13.807-27.52,28.567-27.179
				c8.232,0.364,16.934-1.235,24.684,2.375c10.892,4.588,17.971,16.348,17.252,28.096c-0.034,36.504,0.026,72.998-0.023,109.49
				c-23.52-0.012-47.042,0.023-70.563-0.012C1597.87,440.516,1597.705,402.917,1597.87,365.331"/>
			<path clip-path="url(#SVGID_12_)" fill="#FFFFFF" d="M1454.662,405.046c4.588-1.729,10.738-2.94,14.618,0.917
				c23.945,24.039,48.066,47.913,71.928,72.045c-15.112,0.306-30.226-0.047-45.336,0.152c-8.962,0.13-17.571,6.033-20.806,14.407
				c-2.316,5.527-1.281,11.654-1.493,17.476c-17.511-17.417-34.929-34.929-52.416-52.37c-3.011-2.4-4.868-6.15-4.235-10.044
				c1.225-9.772,7.657-17.945,14.585-24.532C1438.398,416.136,1445.23,408.538,1454.662,405.046"/>
			<path clip-path="url(#SVGID_12_)" fill="#FFFFFF" d="M1796.729,406.127c3.045-3.282,8.091-3.07,12.078-1.94
				c8.02,2.282,14.818,7.551,20.475,13.524c6.892,6.892,14.548,13.596,18.171,22.921c1.798,4.587,3.222,10.549-0.188,14.736
				c-13.666,13.854-27.603,27.46-41.208,41.374c-2.306-3.21-2.977-7.327-5.635-10.314c-4.176-5.269-10.854-8.386-17.558-8.327
				c-17.24,0.094-34.481-0.129-51.712,0.082c-1.941,0.083-3.845-0.293-5.668-0.847
				C1749.274,453.652,1772.973,429.86,1796.729,406.127"/>
			<path clip-path="url(#SVGID_12_)" fill="#FFFFFF" d="M1318.499,487.652c9.067-2.67,19.018-4.41,28.226-1.376
				c3.375,1.14,6.869,3.457,7.621,7.186c21.675,81.112,43.525,162.177,65.118,243.313c3.152,2.082,6.598,3.704,9.737,5.845
				c-45.207,0.247-90.404,0-135.61,0.142c-1.752-0.035-3.492-0.225-5.233-0.389c-19.946-10.878-39.434-22.674-59.202-33.905
				c-24.615-14.207-49.206-28.425-73.821-42.62c-11.677-5.387-19.017-18.746-16.535-31.494c1.247-7.599,6.244-13.725,9.75-20.37
				c7.361-13.76,26.531-18.84,39.762-10.596c48.301,28.001,96.79,55.686,144.973,83.863
				c-15.795-58.355-31.283-116.793-47.007-175.172c-1.646-4.821,1.588-9.526,5.045-12.595
				C1298.812,492.614,1308.914,490.074,1318.499,487.652"/>
			<path clip-path="url(#SVGID_12_)" fill="#FFFFFF" d="M2134.454,943.688c-2.812-2.506-6.786-4.151-10.513-2.835
				c-80.807,21.675-161.637,43.302-242.456,64.953c-0.729-0.306-2.175-0.929-2.904-1.235
				c-58.532-33.846-117.111-67.61-175.644-101.445c59.345-34.164,118.616-68.47,177.938-102.68c1.459-0.189,2.822,0.599,4.246,0.857
				c79.807,21.393,159.625,42.785,239.431,64.177c3.857,1.247,7.832-0.788,10.62-3.386c5.786-5.398,9.161-12.879,11.267-20.381
				c2.81-10.785,6.881-21.863,4.634-33.154c-0.871-4.68-3.223-10.196-8.397-11.267c-58.344-15.546-116.628-31.399-175.007-46.782
				c48.581-28.46,97.553-56.298,146.218-84.629c9.702-5.975,14.464-17.97,13.547-29.061c-0.718-8.832-6.608-15.864-10.607-23.414
				c-7.491-12.761-25.448-17.453-38.28-10.114c-48.616,28.061-97.259,56.098-145.842,84.216
				c15.817-58.426,31.366-116.923,47.065-175.384c1.211-3.705-0.705-7.527-3.14-10.243c-5.34-5.893-12.83-9.338-20.369-11.491
				c-10.584-2.728-21.346-6.762-32.446-4.869c-4.729,0.776-10.457,2.706-12.009,7.774c-21.792,81.182-43.515,162.389-65.306,243.572
				c-2.505,2.329-5.964,3.587-8.879,5.422l0.059,0.376c0.576,1.282-1.248,1.682-1.894,2.353
				c-42.067,24.191-84.042,48.536-126.096,72.738c-16.005-11.619-34.952-19.217-54.64-21.451
				c-24.156-2.929-49.229,1.964-70.457,13.89c-19.394,10.819-35.599,27.296-45.972,46.947
				c-10.515,19.605-15.102,42.326-13.125,64.483c0.636,2.87-2.505,3.857-4.398,5.045c-43.784,25.202-87.509,50.51-131.27,75.749
				c-7.094,3.857-13.844,8.373-21.122,11.843c-0.001-0.015-0.001-0.029-0.001-0.045c-0.77,0.295-1.691,0.559-1.691,1.438
				c0-0.879,0.922-1.143,1.691-1.438c-0.622-15.979-0.094-32.017-0.26-48.02c0.013-52.805-0.069-105.621,0.036-158.438
				c-2.552,0.06-3.764,2.835-5.634,4.211c-34.435,30.989-68.868,61.978-103.314,92.955c-2.377,2.27-5.411,4.046-6.987,7.021
				c37.375,34.033,75.104,67.692,112.643,101.539c0.389,0.506,1.152,1.506,1.54,2c-9.902,6.433-20.498,11.819-30.6,17.946
				c-22.628,13.03-45.196,26.144-67.836,39.163c-2.045,1.258-4.374,1.892-6.715,2.363c-2.14,0.435-3.916,1.764-5.786,2.799
				c-34.505,19.945-69.033,39.844-103.538,59.779c-10.244,5.845-15.442,18.203-14.431,29.671
				c0.693,8.726,6.503,15.654,10.454,23.109c7.444,12.972,25.639,17.807,38.563,10.278c48.583-28.014,97.165-56.039,145.712-84.122
				c-15.817,58.449-31.376,116.959-47.089,175.443c-1.164,3.504,0.612,7.174,2.869,9.842c5.152,5.93,12.549,9.397,19.959,11.633
				c10.713,2.75,21.579,6.856,32.847,5.115c4.846-0.729,10.748-2.693,12.348-7.892c21.815-81.312,43.573-162.636,65.389-243.947
				c59.273-34.282,118.676-68.341,177.854-102.787c0.399,3.858,0.095,7.75,0.188,11.631c0.023,64.707-0.023,129.413,0.023,194.118
				c-59.508,59.627-119.11,119.146-178.666,178.713c-3.739,4.035-2.341,10.232-0.529,14.854
				c3.693,9.596,11.632,16.431,18.699,23.544c5.434,5.68,11.973,10.632,19.581,12.937c3.717,1.035,8.209,1.541,11.479-0.917
				c43.29-42.914,86.229-86.181,129.425-129.189c-0.012,56.063-0.012,112.125,0,168.188c0.059,11.15,7.408,21.746,17.723,25.906
				c7.432,3.296,15.713,1.871,23.58,2.188c11.771,0.341,23.18-7.42,27.272-18.451c2.728-6.787,1.813-14.219,1.976-21.347
				c0-52.157,0.024-104.315-0.014-156.46c43.092,42.854,85.947,85.957,128.99,128.859c3.341,2.94,8.304,2.281,12.255,1.127
				c9.22-2.891,16.406-9.702,22.933-16.521c6.787-6.457,13.407-13.763,15.995-22.993c1.046-3.963,1.353-8.915-1.812-12.02
				c-59.449-59.473-118.933-118.899-178.361-178.384c0.038-68.517,0.026-137.032,0-205.549
				c59.369,34.305,118.736,68.634,178.149,102.845c21.875,81.218,43.551,162.497,65.343,243.737
				c1.069,4.397,5.608,6.644,9.667,7.644c9.783,2.424,19.804-0.117,29.236-2.848c8.926-2.126,18.052-5.186,24.814-11.677
				c2.752-2.786,5.445-6.608,4.574-10.725c-15.56-58.721-31.612-117.322-46.995-176.079c48.359,27.979,96.767,55.885,145.137,83.829
				c9.831,5.705,22.991,4.751,31.906-2.293c6.738-5.045,9.738-13.23,14.077-20.146c7.35-12.772,2.705-30.614-9.915-38.198
				c-48.664-28.144-97.364-56.25-146.063-84.347c58.543-15.759,117.134-31.365,175.688-47.112c4.752-1.271,6.822-6.468,7.728-10.832
				c2.388-11.819-2.022-23.38-4.939-34.657C2143.651,956.001,2140.229,948.77,2134.454,943.688"/>
			<path clip-path="url(#SVGID_12_)" fill="#FFFFFF" d="M1640.912,513.359c1.236,0.53,2.118,1.554,3,2.541
				c32.26,35.917,64.578,71.787,96.859,107.679c1.494,1.847,3.882,3.281,4.293,5.775c-69.27-0.048-138.539,0.034-207.808-0.024
				c0.224-0.471,0.659-1.435,0.883-1.917C1572.526,589.521,1606.584,551.311,1640.912,513.359"/>
			<path clip-path="url(#SVGID_12_)" fill="#FFFFFF" d="M1124.24,794.637c28.247-7.516,56.473-15.136,84.723-22.663
				c0.022,24.344,0.011,48.677,0.011,73.021c-22.791,6.104-45.595,12.219-68.398,18.312c-5.54,1.399-10.372-2.917-13.513-6.974
				c-6.868-8.645-8.668-19.781-11.584-30.119c-2.011-8.597-2.988-18.312,1.211-26.414
				C1118.159,796.895,1121.087,795.13,1124.24,794.637"/>
			<path clip-path="url(#SVGID_12_)" fill="#FFFFFF" d="M1127.438,944.652c3.14-3.834,8.021-7.762,13.289-6.15
				c22.745,6.104,45.502,12.184,68.247,18.311c-0.037,24.332,0.035,48.678,0,73.021c-27.909-7.479-55.805-14.971-83.7-22.427
				c-3.422-0.646-7.021-1.963-8.68-5.269c-4.175-7.761-3.422-17.135-1.61-25.461
				C1118.054,965.669,1119.888,953.696,1127.438,944.652"/>
			<path clip-path="url(#SVGID_12_)" fill="#4ABAFF" d="M1721.766,478.125c1.178-0.259,2.977,0.553,3.718-0.788
				c1.823,0.553,3.727,0.929,5.668,0.847c17.23-0.211,34.472,0.012,51.712-0.082c6.703-0.06,13.382,3.057,17.558,8.326
				c2.658,2.987,3.329,7.104,5.635,10.314c-0.202,0.293-0.613,0.893-0.813,1.188c-0.034,81.594,0,163.2-0.011,244.794
				c10.808-0.035,21.628,0.071,32.447-0.058c0.576,1.281-1.248,1.681-1.894,2.352c-42.067,24.191-84.042,48.536-126.096,72.738
				c-16.005-11.619-34.952-19.217-54.64-21.45c-24.156-2.93-49.229,1.963-70.457,13.889c-19.394,10.819-35.599,27.296-45.972,46.947
				c-10.515,19.605-15.101,42.326-13.125,64.483c0.635,2.87-2.505,3.856-4.398,5.045c-43.784,25.202-87.51,50.51-131.27,75.749
				c-7.093,3.857-13.843,8.373-21.123,11.843c-0.623-15.995-0.093-32.047-0.259-48.064c0.011-52.805-0.069-105.621,0.036-158.438
				c-2.553,0.06-3.765,2.834-5.635,4.211c-34.435,30.989-68.868,61.978-103.314,92.955c-2.377,2.27-5.412,4.046-6.987,7.021
				c37.375,34.033,75.104,67.692,112.643,101.539c0.389,0.506,1.152,1.506,1.54,1.999c-9.902,6.433-20.498,11.82-30.6,17.946
				c-22.628,13.03-45.195,26.145-67.835,39.164c-2.046,1.258-4.375,1.892-6.716,2.363c-10.783-1.541-21.909,0.177-32.775-0.895
				c-10.456-1.893-19.252-11.302-19.816-22.004c-0.035-7.408,0-14.817-0.012-22.228c0.035-24.344-0.037-48.688,0-73.021
				c0-37.28-0.013-74.55,0-111.818c0-24.344,0.012-48.677-0.013-73.02c0.177-4.353-0.54-8.857,0.918-13.056
				c2.669-8.785,11.137-15.123,20.133-16.089c19.44-0.481,38.951,0.425,58.345-0.458c1.74,0.165,3.481,0.353,5.233,0.389
				c45.206-0.142,90.403,0.105,135.61-0.142c14.794,0.247,29.589,0.035,44.385,0.105c-0.013-77.561,0.022-155.12-0.013-232.681
				c0.212-5.822-0.823-11.95,1.493-17.476c3.234-8.374,11.844-14.278,20.806-14.407c15.111-0.2,30.224,0.152,45.336-0.153
				c18.852,0.247,37.715,0.046,56.579,0.094c23.521,0.035,47.043,0,70.563,0.011
				C1686.156,478.114,1703.963,478.103,1721.766,478.125 M1640.912,513.359c-34.328,37.951-68.386,76.162-102.772,114.054
				c-0.224,0.482-0.659,1.446-0.883,1.917c69.269,0.059,138.538-0.023,207.808,0.024c-0.411-2.494-2.799-3.929-4.293-5.775
				c-32.281-35.893-64.6-71.763-96.859-107.679C1643.03,514.913,1642.148,513.89,1640.912,513.359"/>
			<polyline clip-path="url(#SVGID_12_)" fill="#5094BC" points="1252.546,911.947 1329.338,1035.749 1368.705,1014.263 			"/>
			<polyline clip-path="url(#SVGID_12_)" fill="#CCCED0" points="1641.54,513.359 1700.444,628.851 1745.692,629.354 			"/>
		</g>
	</g>
</g>
</svg>
